<?xml version="1.0" encoding="UTF-8"?>
<!DOCTYPE svg
PUBLIC "-//W3C//DTD SVG 1.1//EN"
       "http://www.w3.org/Graphics/SVG/1.1/DTD/svg11.dtd">
<svg viewBox="55 17 971 349" width="916px" height="332px" xmlns="http://www.w3.org/2000/svg" version="1.1">
   <line x1="307" y1="284" x2="297" y2="284" style="stroke:#0b0;stroke-width:1;"/>
   <line x1="352" y1="62" x2="362" y2="62" style="stroke:#0b0;stroke-width:1;"/>
   <line x1="297" y1="284" x2="352" y2="62" style="stroke:#0b0;stroke-width:1;"/>
   <line x1="299.5" y1="284" x2="303.03553390593" y2="287.53553390593" style="stroke:#0b0;stroke-width:2;"/>
   <line x1="299.5" y1="284" x2="303.03553390593" y2="280.46446609407" style="stroke:#0b0;stroke-width:2;"/>
   <line x1="357" y1="62" x2="353.46446609407" y2="65.535533905933" style="stroke:#0b0;stroke-width:2;"/>
   <line x1="357" y1="62" x2="353.46446609407" y2="58.464466094067" style="stroke:#0b0;stroke-width:2;"/>
   <line x1="445" y1="264" x2="455" y2="264" style="stroke:#cb0;stroke-width:1;"/>
   <line x1="576" y1="264" x2="586" y2="264" style="stroke:#cb0;stroke-width:1;"/>
   <line x1="455" y1="264" x2="576" y2="264" style="stroke:#cb0;stroke-width:1;"/>
   <line x1="452.5" y1="264" x2="448.96446609407" y2="267.53553390593" style="stroke:#cb0;stroke-width:2;"/>
   <line x1="452.5" y1="264" x2="448.96446609407" y2="260.46446609407" style="stroke:#cb0;stroke-width:2;"/>
   <line x1="581" y1="264" x2="577.46446609407" y2="267.53553390593" style="stroke:#cb0;stroke-width:2;"/>
   <line x1="581" y1="264" x2="577.46446609407" y2="260.46446609407" style="stroke:#cb0;stroke-width:2;"/>
   <line x1="208" y1="169" x2="218" y2="169" style="stroke:#bbb;stroke-width:1;"/>
   <line x1="352" y1="62" x2="362" y2="62" style="stroke:#bbb;stroke-width:1;"/>
   <line x1="218" y1="169" x2="352" y2="62" style="stroke:#bbb;stroke-width:1;"/>
   <line x1="215.5" y1="169" x2="211.96446609407" y2="172.53553390593" style="stroke:#bbb;stroke-width:2;"/>
   <line x1="215.5" y1="169" x2="211.96446609407" y2="165.46446609407" style="stroke:#bbb;stroke-width:2;"/>
   <line x1="357" y1="62" x2="353.46446609407" y2="65.535533905933" style="stroke:#bbb;stroke-width:2;"/>
   <line x1="357" y1="62" x2="353.46446609407" y2="58.464466094067" style="stroke:#bbb;stroke-width:2;"/>
   <line x1="500" y1="142" x2="510" y2="142" style="stroke:#bbb;stroke-width:1;"/>
   <line x1="576" y1="264" x2="586" y2="264" style="stroke:#bbb;stroke-width:1;"/>
   <line x1="510" y1="142" x2="576" y2="264" style="stroke:#bbb;stroke-width:1;"/>
   <line x1="507.5" y1="142" x2="503.96446609407" y2="145.53553390593" style="stroke:#bbb;stroke-width:2;"/>
   <line x1="507.5" y1="142" x2="503.96446609407" y2="138.46446609407" style="stroke:#bbb;stroke-width:2;"/>
   <line x1="581" y1="264" x2="577.46446609407" y2="267.53553390593" style="stroke:#bbb;stroke-width:2;"/>
   <line x1="581" y1="264" x2="577.46446609407" y2="260.46446609407" style="stroke:#bbb;stroke-width:2;"/>
   <line x1="500" y1="122" x2="510" y2="122" style="stroke:#c00;stroke-width:1;"/>
   <line x1="600" y1="65" x2="610" y2="65" style="stroke:#c00;stroke-width:1;"/>
   <line x1="510" y1="122" x2="600" y2="65" style="stroke:#c00;stroke-width:1;"/>
   <line x1="507.5" y1="122" x2="503.96446609407" y2="125.53553390593" style="stroke:#c00;stroke-width:2;"/>
   <line x1="507.5" y1="122" x2="503.96446609407" y2="118.46446609407" style="stroke:#c00;stroke-width:2;"/>
   <line x1="605" y1="65" x2="601.46446609407" y2="68.535533905933" style="stroke:#c00;stroke-width:2;"/>
   <line x1="605" y1="65" x2="601.46446609407" y2="61.464466094067" style="stroke:#c00;stroke-width:2;"/>
   <line x1="818" y1="195" x2="808" y2="195" style="stroke:#333;stroke-width:1;"/>
   <line x1="758" y1="65" x2="748" y2="65" style="stroke:#333;stroke-width:1;"/>
   <line x1="808" y1="195" x2="758" y2="65" style="stroke:#333;stroke-width:1;"/>
   <line x1="810.5" y1="195" x2="814.03553390593" y2="198.53553390593" style="stroke:#333;stroke-width:2;"/>
   <line x1="810.5" y1="195" x2="814.03553390593" y2="191.46446609407" style="stroke:#333;stroke-width:2;"/>
   <line x1="753" y1="65" x2="756.53553390593" y2="68.535533905933" style="stroke:#333;stroke-width:2;"/>
   <line x1="753" y1="65" x2="756.53553390593" y2="61.464466094067" style="stroke:#333;stroke-width:2;"/>
   <line x1="818" y1="215" x2="808" y2="215" style="stroke:#0bf;stroke-width:1;"/>
   <line x1="734" y1="264" x2="724" y2="264" style="stroke:#0bf;stroke-width:1;"/>
   <line x1="808" y1="215" x2="734" y2="264" style="stroke:#0bf;stroke-width:1;"/>
   <line x1="810.5" y1="215" x2="814.03553390593" y2="218.53553390593" style="stroke:#0bf;stroke-width:2;"/>
   <line x1="810.5" y1="215" x2="814.03553390593" y2="211.46446609407" style="stroke:#0bf;stroke-width:2;"/>
   <line x1="729" y1="264" x2="732.53553390593" y2="267.53553390593" style="stroke:#0bf;stroke-width:2;"/>
   <line x1="729" y1="264" x2="732.53553390593" y2="260.46446609407" style="stroke:#0bf;stroke-width:2;"/>
   <rect width="138" height="20" x="307" y="234" style="fill:#007;stroke:black;"/>
   <text width="138" height="20" x="312" y="248" style="fill:#fff;" font-family="Arial" font-size="16px"> ActionLog</text>
   <rect width="138" height="20" x="307" y="254" style="fill:#aea;stroke:black;"/>
   <text width="138" height="20" x="312" y="268" style="fill:black;" font-family="Arial" font-size="16px">UserId</text>
   <rect width="138" height="20" x="307" y="274" style="fill:none;stroke:black;"/>
   <text width="138" height="20" x="312" y="288" style="fill:black;" font-family="Arial" font-size="16px">DeviceId</text>
   <rect width="138" height="20" x="307" y="294" style="fill:none;stroke:black;"/>
   <text width="138" height="20" x="312" y="308" style="fill:black;" font-family="Arial" font-size="16px">TimeStamp</text>
   <rect width="138" height="20" x="307" y="314" style="fill:none;stroke:black;"/>
   <text width="138" height="20" x="312" y="328" style="fill:black;" font-family="Arial" font-size="16px">Action</text>
   <rect width="138" height="20" x="70" y="59" style="fill:#007;stroke:black;"/>
   <text width="138" height="20" x="75" y="73" style="fill:#fff;" font-family="Arial" font-size="16px"> DataValue</text>
   <rect width="138" height="20" x="70" y="79" style="fill:#aea;stroke:black;"/>
   <text width="138" height="20" x="75" y="93" style="fill:black;" font-family="Arial" font-size="16px">Id</text>
   <rect width="138" height="20" x="70" y="99" style="fill:none;stroke:black;"/>
   <text width="138" height="20" x="75" y="113" style="fill:black;" font-family="Arial" font-size="16px">Value</text>
   <rect width="138" height="20" x="70" y="119" style="fill:none;stroke:black;"/>
   <text width="138" height="20" x="75" y="133" style="fill:black;" font-family="Arial" font-size="16px">Type</text>
   <rect width="138" height="20" x="70" y="139" style="fill:none;stroke:black;"/>
   <text width="138" height="20" x="75" y="153" style="fill:black;" font-family="Arial" font-size="16px">TimeStamp</text>
   <rect width="138" height="20" x="70" y="159" style="fill:none;stroke:black;"/>
   <text width="138" height="20" x="75" y="173" style="fill:black;" font-family="Arial" font-size="16px">DeviceId</text>
   <rect width="138" height="20" x="362" y="32" style="fill:#007;stroke:black;"/>
   <text width="138" height="20" x="367" y="46" style="fill:#fff;" font-family="Arial" font-size="16px"> Device</text>
   <rect width="138" height="20" x="362" y="52" style="fill:none;stroke:black;"/>
   <text width="138" height="20" x="367" y="66" style="fill:black;" font-family="Arial" font-size="16px">EUI</text>
   <rect width="138" height="20" x="362" y="72" style="fill:none;stroke:black;"/>
   <text width="138" height="20" x="367" y="86" style="fill:black;" font-family="Arial" font-size="16px">Alias</text>
   <rect width="138" height="20" x="362" y="92" style="fill:none;stroke:black;"/>
   <text width="138" height="20" x="367" y="106" style="fill:black;" font-family="Arial" font-size="16px">Description</text>
   <rect width="138" height="20" x="362" y="112" style="fill:none;stroke:black;"/>
   <text width="138" height="20" x="367" y="126" style="fill:black;" font-family="Arial" font-size="16px">GroupId</text>
   <rect width="138" height="20" x="362" y="132" style="fill:none;stroke:black;"/>
   <text width="138" height="20" x="367" y="146" style="fill:black;" font-family="Arial" font-size="16px">UserId</text>
   <rect width="138" height="20" x="610" y="35" style="fill:#007;stroke:black;"/>
   <text width="138" height="20" x="615" y="49" style="fill:#fff;" font-family="Arial" font-size="16px"> DeviceGroup</text>
   <rect width="138" height="20" x="610" y="55" style="fill:#aea;stroke:black;"/>
   <text width="138" height="20" x="615" y="69" style="fill:black;" font-family="Arial" font-size="16px">Id</text>
   <rect width="138" height="20" x="610" y="75" style="fill:none;stroke:black;"/>
   <text width="138" height="20" x="615" y="89" style="fill:black;" font-family="Arial" font-size="16px">Alias</text>
   <rect width="138" height="20" x="610" y="95" style="fill:none;stroke:black;"/>
   <text width="138" height="20" x="615" y="109" style="fill:black;" font-family="Arial" font-size="16px">Description</text>
   <rect width="138" height="20" x="610" y="115" style="fill:none;stroke:black;"/>
   <text width="138" height="20" x="615" y="129" style="fill:black;" font-family="Arial" font-size="16px">Location</text>
   <rect width="138" height="20" x="586" y="234" style="fill:#007;stroke:black;"/>
   <text width="138" height="20" x="591" y="248" style="fill:#fff;" font-family="Arial" font-size="16px"> User</text>
   <rect width="138" height="20" x="586" y="254" style="fill:#aea;stroke:black;"/>
   <text width="138" height="20" x="591" y="268" style="fill:black;" font-family="Arial" font-size="16px">Id</text>
   <rect width="138" height="20" x="586" y="274" style="fill:none;stroke:black;"/>
   <text width="138" height="20" x="591" y="288" style="fill:black;" font-family="Arial" font-size="16px">User</text>
   <rect width="138" height="20" x="586" y="294" style="fill:none;stroke:black;"/>
   <text width="138" height="20" x="591" y="308" style="fill:black;" font-family="Arial" font-size="16px">PwdHash</text>
   <rect width="138" height="20" x="586" y="314" style="fill:none;stroke:black;"/>
   <text width="138" height="20" x="591" y="328" style="fill:black;" font-family="Arial" font-size="16px">Name</text>
   <rect width="138" height="20" x="818" y="165" style="fill:#007;stroke:black;"/>
   <text width="138" height="20" x="823" y="179" style="fill:#fff;" font-family="Arial" font-size="16px"> UserDeviceGroup</text>
   <rect width="138" height="20" x="818" y="185" style="fill:#aea;stroke:black;"/>
   <text width="138" height="20" x="823" y="199" style="fill:black;" font-family="Arial" font-size="16px">DeviceGropuId</text>
   <rect width="138" height="20" x="818" y="205" style="fill:#aea;stroke:black;"/>
   <text width="138" height="20" x="823" y="219" style="fill:black;" font-family="Arial" font-size="16px">UserId</text>
</svg>
